<svg xmlns="http://www.w3.org/2000/svg" viewBox="0 0 1440 320"><path fill="#ff0000" fill-opacity="1" d="M0,96L15,122.7C30,149,60,203,90,186.7C120,171,150,85,180,80C210,75,240,149,270,160C300,171,330,117,360,117.3C390,117,420,171,450,208C480,245,510,267,540,277.3C570,288,600,288,630,256C660,224,690,160,720,117.3C750,75,780,53,810,48C840,43,870,53,900,80C930,107,960,149,990,165.3C1020,181,1050,171,1080,181.3C1110,192,1140,224,1170,224C1200,224,1230,192,1260,181.3C1290,171,1320,181,1350,202.7C1380,224,1410,256,1425,272L1440,288L1440,320L1425,320C1410,320,1380,320,1350,320C1320,320,1290,320,1260,320C1230,320,1200,320,1170,320C1140,320,1110,320,1080,320C1050,320,1020,320,990,320C960,320,930,320,900,320C870,320,840,320,810,320C780,320,750,320,720,320C690,320,660,320,630,320C600,320,570,320,540,320C510,320,480,320,450,320C420,320,390,320,360,320C330,320,300,320,270,320C240,320,210,320,180,320C150,320,120,320,90,320C60,320,30,320,15,320L0,320Z"></path></svg>